<svg width="126" height="38" viewBox="0 0 126 38" fill="none" xmlns="http://www.w3.org/2000/svg">
<path d="M29.0781 19.1406V20.7578C29.0781 23.3516 28.7266 25.6797 28.0234 27.7422C27.3203 29.8047 26.3281 31.5625 25.0469 33.0156C23.7656 34.4531 22.2344 35.5547 20.4531 36.3203C18.6875 37.0859 16.7266 37.4688 14.5703 37.4688C12.4297 37.4688 10.4688 37.0859 8.6875 36.3203C6.92188 35.5547 5.39062 34.4531 4.09375 33.0156C2.79688 31.5625 1.78906 29.8047 1.07031 27.7422C0.367188 25.6797 0.015625 23.3516 0.015625 20.7578V19.1406C0.015625 16.5312 0.367188 14.2031 1.07031 12.1562C1.77344 10.0938 2.76562 8.33594 4.04688 6.88281C5.34375 5.42969 6.875 4.32031 8.64062 3.55469C10.4219 2.78906 12.3828 2.40625 14.5234 2.40625C16.6797 2.40625 18.6406 2.78906 20.4062 3.55469C22.1875 4.32031 23.7188 5.42969 25 6.88281C26.2969 8.33594 27.2969 10.0938 28 12.1562C28.7188 14.2031 29.0781 16.5312 29.0781 19.1406ZM21.9766 20.7578V19.0938C21.9766 17.2812 21.8125 15.6875 21.4844 14.3125C21.1562 12.9375 20.6719 11.7812 20.0312 10.8438C19.3906 9.90625 18.6094 9.20312 17.6875 8.73438C16.7656 8.25 15.7109 8.00781 14.5234 8.00781C13.3359 8.00781 12.2812 8.25 11.3594 8.73438C10.4531 9.20312 9.67969 9.90625 9.03906 10.8438C8.41406 11.7812 7.9375 12.9375 7.60938 14.3125C7.28125 15.6875 7.11719 17.2812 7.11719 19.0938V20.7578C7.11719 22.5547 7.28125 24.1484 7.60938 25.5391C7.9375 26.9141 8.42188 28.0781 9.0625 29.0312C9.70312 29.9688 10.4844 30.6797 11.4062 31.1641C12.3281 31.6484 13.3828 31.8906 14.5703 31.8906C15.7578 31.8906 16.8125 31.6484 17.7344 31.1641C18.6562 30.6797 19.4297 29.9688 20.0547 29.0312C20.6797 28.0781 21.1562 26.9141 21.4844 25.5391C21.8125 24.1484 21.9766 22.5547 21.9766 20.7578ZM42.3203 37H35.5234V9.39062C35.5234 7.46875 35.8984 5.85156 36.6484 4.53906C37.4141 3.21094 38.4844 2.21094 39.8594 1.53906C41.25 0.851563 42.8984 0.507812 44.8047 0.507812C45.4297 0.507812 46.0312 0.554688 46.6094 0.648438C47.1875 0.726562 47.75 0.828125 48.2969 0.953125L48.2266 6.03906C47.9297 5.96094 47.6172 5.90625 47.2891 5.875C46.9609 5.84375 46.5781 5.82812 46.1406 5.82812C45.3281 5.82812 44.6328 5.96875 44.0547 6.25C43.4922 6.51562 43.0625 6.91406 42.7656 7.44531C42.4688 7.97656 42.3203 8.625 42.3203 9.39062V37ZM47.4531 11.6406V16.4219H31.75V11.6406H47.4531ZM57.5078 37H50.7578V10.4922C50.7578 8.33594 51.1953 6.51562 52.0703 5.03125C52.9453 3.54688 54.2109 2.42188 55.8672 1.65625C57.5234 0.890625 59.5156 0.507812 61.8438 0.507812C63.1719 0.507812 64.4609 0.640625 65.7109 0.90625C66.9609 1.15625 68.25 1.48438 69.5781 1.89062L68.6172 7.30469C67.7578 7.03906 66.8281 6.78906 65.8281 6.55469C64.8438 6.32031 63.6562 6.20312 62.2656 6.20312C60.7031 6.20312 59.5156 6.57031 58.7031 7.30469C57.9062 8.02344 57.5078 9.08594 57.5078 10.4922V37ZM62.5469 11.6406V16.4219H46.9609V11.6406H62.5469ZM72.7422 11.6406V37H65.9453V11.6406H72.7422ZM88.8203 32.1953C89.6484 32.1953 90.3828 32.0391 91.0234 31.7266C91.6641 31.3984 92.1641 30.9453 92.5234 30.3672C92.8984 29.7734 93.0938 29.0781 93.1094 28.2812H99.4609C99.4453 30.0625 98.9688 31.6484 98.0312 33.0391C97.0938 34.4141 95.8359 35.5 94.2578 36.2969C92.6797 37.0781 90.9141 37.4688 88.9609 37.4688C86.9922 37.4688 85.2734 37.1406 83.8047 36.4844C82.3516 35.8281 81.1406 34.9219 80.1719 33.7656C79.2031 32.5938 78.4766 31.2344 77.9922 29.6875C77.5078 28.125 77.2656 26.4531 77.2656 24.6719V23.9922C77.2656 22.1953 77.5078 20.5234 77.9922 18.9766C78.4766 17.4141 79.2031 16.0547 80.1719 14.8984C81.1406 13.7266 82.3516 12.8125 83.8047 12.1562C85.2578 11.5 86.9609 11.1719 88.9141 11.1719C90.9922 11.1719 92.8125 11.5703 94.375 12.3672C95.9531 13.1641 97.1875 14.3047 98.0781 15.7891C98.9844 17.2578 99.4453 19 99.4609 21.0156H93.1094C93.0938 20.1719 92.9141 19.4062 92.5703 18.7188C92.2422 18.0312 91.7578 17.4844 91.1172 17.0781C90.4922 16.6562 89.7188 16.4453 88.7969 16.4453C87.8125 16.4453 87.0078 16.6562 86.3828 17.0781C85.7578 17.4844 85.2734 18.0469 84.9297 18.7656C84.5859 19.4688 84.3438 20.2734 84.2031 21.1797C84.0781 22.0703 84.0156 23.0078 84.0156 23.9922V24.6719C84.0156 25.6562 84.0781 26.6016 84.2031 27.5078C84.3281 28.4141 84.5625 29.2188 84.9062 29.9219C85.2656 30.625 85.7578 31.1797 86.3828 31.5859C87.0078 31.9922 87.8203 32.1953 88.8203 32.1953ZM115.047 37.4688C113.078 37.4688 111.312 37.1562 109.75 36.5312C108.188 35.8906 106.859 35.0078 105.766 33.8828C104.688 32.7578 103.859 31.4531 103.281 29.9688C102.703 28.4688 102.414 26.875 102.414 25.1875V24.25C102.414 22.3281 102.688 20.5703 103.234 18.9766C103.781 17.3828 104.562 16 105.578 14.8281C106.609 13.6562 107.859 12.7578 109.328 12.1328C110.797 11.4922 112.453 11.1719 114.297 11.1719C116.094 11.1719 117.688 11.4688 119.078 12.0625C120.469 12.6562 121.633 13.5 122.57 14.5938C123.523 15.6875 124.242 17 124.727 18.5312C125.211 20.0469 125.453 21.7344 125.453 23.5938V26.4062H105.297V21.9062H118.82V21.3906C118.82 20.4531 118.648 19.6172 118.305 18.8828C117.977 18.1328 117.477 17.5391 116.805 17.1016C116.133 16.6641 115.273 16.4453 114.227 16.4453C113.336 16.4453 112.57 16.6406 111.93 17.0312C111.289 17.4219 110.766 17.9688 110.359 18.6719C109.969 19.375 109.672 20.2031 109.469 21.1562C109.281 22.0938 109.188 23.125 109.188 24.25V25.1875C109.188 26.2031 109.328 27.1406 109.609 28C109.906 28.8594 110.32 29.6016 110.852 30.2266C111.398 30.8516 112.055 31.3359 112.82 31.6797C113.602 32.0234 114.484 32.1953 115.469 32.1953C116.688 32.1953 117.82 31.9609 118.867 31.4922C119.93 31.0078 120.844 30.2812 121.609 29.3125L124.891 32.875C124.359 33.6406 123.633 34.375 122.711 35.0781C121.805 35.7812 120.711 36.3594 119.43 36.8125C118.148 37.25 116.688 37.4688 115.047 37.4688Z" fill="black"/>
</svg>
